HIERARCHY
ROOT Hips
{
	OFFSET -0.001795 -0.223333 0.028219
	CHANNELS 6 Xposition Yposition Zposition Zrotation Yrotation Xrotation 
	JOINT LeftUpLeg
	{
		OFFSET 0.069520 -0.091406 -0.006815
		CHANNELS 3 Zrotation Yrotation Xrotation
		JOINT LeftLeg
		{
			OFFSET 0.034277 -0.375199 -0.004496
			CHANNELS 3 Zrotation Yrotation Xrotation
			JOINT LeftFoot
			{
				OFFSET -0.013596 -0.397961 -0.043693
				CHANNELS 3 Zrotation Yrotation Xrotation
				JOINT LeftToe
				{
					OFFSET 0.026358 -0.055791 0.119288
					CHANNELS 3 Zrotation Yrotation Xrotation
					End Site
					{
						OFFSET 0.000000 0.000000 0.000000
					}
				}
			}
		}
	}
	JOINT RightUpLeg
	{
		OFFSET -0.067670 -0.090522 -0.004320
		CHANNELS 3 Zrotation Yrotation Xrotation
		JOINT RightLeg
		{
			OFFSET -0.038290 -0.382569 -0.008850
			CHANNELS 3 Zrotation Yrotation Xrotation
			JOINT RightFoot
			{
				OFFSET 0.015774 -0.398415 -0.042312
				CHANNELS 3 Zrotation Yrotation Xrotation
				JOINT RightToe
				{
					OFFSET -0.025372 -0.048144 0.123348
					CHANNELS 3 Zrotation Yrotation Xrotation
					End Site
					{
						OFFSET 0.000000 0.000000 0.000000
					}
				}
			}
		}
	}
	JOINT Spine
	{
		OFFSET -0.002533 0.108963 -0.026696
		CHANNELS 3 Zrotation Yrotation Xrotation
		JOINT Spine1
		{
			OFFSET 0.005487 0.135180 0.001092
			CHANNELS 3 Zrotation Yrotation Xrotation
			JOINT Spine2
			{
				OFFSET 0.001457 0.052922 0.025425
				CHANNELS 3 Zrotation Yrotation Xrotation
				JOINT Neck
				{
					OFFSET -0.002778 0.213870 -0.042857
					CHANNELS 3 Zrotation Yrotation Xrotation
					JOINT Head
					{
						OFFSET 0.005152 0.064970 0.051349
						CHANNELS 3 Zrotation Yrotation Xrotation
						End Site
						{
							OFFSET 0.000000 0.000000 0.000000
						}
					}
				}
				JOINT LeftShoulder
				{
					OFFSET 0.078845 0.121749 -0.034090
					CHANNELS 3 Zrotation Yrotation Xrotation
					JOINT LeftArm
					{
						OFFSET 0.090977 0.030469 -0.008868
						CHANNELS 3 Zrotation Yrotation Xrotation
						JOINT LeftForeArm
						{
							OFFSET 0.259612 -0.012772 -0.027456
							CHANNELS 3 Zrotation Yrotation Xrotation
							JOINT LeftHand
							{
								OFFSET 0.249234 0.008986 -0.001171
								CHANNELS 3 Zrotation Yrotation Xrotation
								End Site
								{
									OFFSET 0.000000 0.000000 0.000000
								}
							}
						}
					}
				}
				JOINT RightShoulder
				{
					OFFSET -0.081759 0.118833 -0.038615
					CHANNELS 3 Zrotation Yrotation Xrotation
					JOINT RightArm
					{
						OFFSET -0.096012 0.032551 -0.009143
						CHANNELS 3 Zrotation Yrotation Xrotation
						JOINT RightForeArm
						{
							OFFSET -0.253742 -0.013329 -0.021401
							CHANNELS 3 Zrotation Yrotation Xrotation
							JOINT RightHand
							{
								OFFSET -0.255298 0.007772 -0.005559
								CHANNELS 3 Zrotation Yrotation Xrotation
								End Site
								{
									OFFSET 0.000000 0.000000 0.000000
								}
							}
						}
					}
				}
			}
		}
	}
}
MOTION
Frames: 16
Frame Time: 0.050000
0.000000 0.921558 0.000000 -1.911182 -7.412008 -1.746222 11.290114 0.519157 -19.060161 -8.258422 2.660786 25.264409 -14.041929 -14.123077 20.048009 0.000000 0.000000 0.000000 -3.585397 0.233803 -1.638402 5.096833 -0.419525 8.357811 -7.292587 -17.864445 2.936162 0.000000 0.000000 0.000000 7.720933 -1.015369 9.908248 -8.018429 2.463886 -24.025629 2.735432 14.959019 28.825264 9.151126 -1.008951 -32.774538 0.000000 0.000000 0.000000 -26.939889 -10.487370 0.988411 -59.033897 2.682167 -10.052608 -4.723478 -28.766205 2.197508 0.000000 0.000000 0.000000 29.897771 0.831862 2.960881 64.205762 13.655686 -2.339342 1.132870 31.496454 2.859162 0.000000 0.000000 0.000000 
-0.008071 0.923606 0.025468 -1.875973 -7.098844 -2.747034 10.451502 0.344240 -18.390158 -5.671694 1.702088 25.710575 -61.632061 -40.043598 56.273202 0.000000 0.000000 0.000000 -3.281424 -0.048036 2.426614 4.986231 -0.430592 6.246511 -7.188670 -17.619772 3.062368 0.000000 0.000000 0.000000 7.231467 -0.864928 8.929120 -7.919215 2.445084 -24.332738 3.061650 14.897765 29.987248 6.706633 0.488068 -34.924980 0.000000 0.000000 0.000000 -28.048560 -8.476164 -0.443269 -56.313564 4.550946 -10.396606 -8.915358 -28.859548 3.260326 0.000000 0.000000 0.000000 31.181381 0.056849 2.640799 64.631992 12.587957 -3.163692 1.798001 32.722802 3.300444 0.000000 0.000000 0.000000 
-0.011960 0.924938 0.051061 -1.915693 -7.836661 -3.969892 9.817885 0.249053 -15.975764 -3.281747 0.939953 27.024742 -87.493127 -40.773654 77.550444 0.000000 0.000000 0.000000 -3.464842 -0.246646 6.109871 5.085124 -0.443440 4.983337 -6.649715 -16.475520 3.327483 0.000000 0.000000 0.000000 6.371580 -0.632366 7.279070 -7.609263 2.366149 -24.235060 2.692005 17.121951 30.414598 7.426112 0.327622 -33.928730 0.000000 0.000000 0.000000 -24.599486 -7.667498 -1.057064 -58.102678 4.966379 -11.199356 -6.228130 -27.597449 2.355771 0.000000 0.000000 0.000000 32.749240 -0.585619 3.062944 62.983336 13.182431 -3.315825 2.872029 31.514523 3.497545 0.000000 0.000000 0.000000 
-0.010022 0.923492 0.075813 -2.714932 -9.134399 -4.230771 8.639998 0.091443 -12.106299 0.229352 -0.271615 26.064988 -101.234330 -41.958456 86.285468 0.000000 0.000000 0.000000 -3.454992 -0.302932 7.604251 5.430854 -0.465026 5.655661 -6.050510 -15.161458 3.261394 0.000000 0.000000 0.000000 6.878880 -0.448722 5.166340 -8.575179 2.637451 -23.400672 3.953534 17.505201 30.836705 8.088270 -0.308852 -31.811919 0.000000 0.000000 0.000000 -25.576886 -6.021613 -2.120062 -56.766061 7.109840 -11.786022 -6.440252 -28.664795 2.503039 0.000000 0.000000 0.000000 32.638659 -2.311960 1.666690 64.072736 11.005010 -4.370642 3.970474 32.991107 4.136706 0.000000 0.000000 0.000000 
-0.001252 0.922390 0.096780 -2.871854 -10.502550 -5.191979 8.476508 0.139865 -7.176061 -0.614984 0.070967 22.474879 -100.958202 -43.252828 85.045992 0.000000 0.000000 0.000000 -4.820537 -0.124536 7.302215 6.123003 -0.508591 10.011254 -5.482385 -14.068463 3.684796 0.000000 0.000000 0.000000 6.526716 -0.342854 4.388573 -7.945998 2.450555 -23.507972 3.475558 18.427528 31.281699 8.433631 -0.556905 -31.285839 0.000000 0.000000 0.000000 -24.925810 -4.306498 -2.983057 -55.455150 5.960259 -11.082729 -6.448399 -27.524479 2.402233 0.000000 0.000000 0.000000 33.656174 -2.659334 1.419011 62.686866 8.445609 -5.931473 5.534159 33.735937 4.680340 0.000000 0.000000 0.000000 
0.014688 0.921458 0.109248 -2.668455 -10.361430 -6.161002 7.759212 0.122733 -4.632535 -1.807458 0.415052 21.016718 -99.447590 -42.527699 84.509098 0.000000 0.000000 0.000000 -6.881103 0.101531 5.885120 6.904944 -0.603363 15.202151 -4.981301 -13.584775 5.561634 0.000000 0.000000 0.000000 5.362794 -0.337805 4.806275 -8.344291 2.575507 -23.442276 4.340166 17.344729 31.797015 8.121275 -0.375436 -32.709168 0.000000 0.000000 0.000000 -25.950119 -4.587975 -2.695944 -55.242213 4.298410 -10.264613 -4.455101 -27.295079 1.965427 0.000000 0.000000 0.000000 32.756565 -2.420603 1.200237 62.919345 6.937068 -6.597620 5.154082 34.166954 4.601926 0.000000 0.000000 0.000000 
0.034654 0.923911 0.112238 -2.116046 -9.546418 -6.328078 6.097643 0.015403 -3.787392 -2.392506 0.511822 19.359190 -97.667103 -41.350991 84.131789 0.000000 0.000000 0.000000 -9.633011 0.348826 0.018493 8.436930 -0.899841 24.961400 -4.459360 -14.021123 11.456554 0.000000 0.000000 0.000000 3.854505 -0.405510 6.366004 -7.556422 2.369556 -23.735900 3.501792 16.451347 32.176999 8.188587 -0.305649 -34.412507 0.000000 0.000000 0.000000 -25.952362 -4.092179 -2.803749 -55.356415 3.063909 -9.847729 -4.086639 -28.244790 1.988831 0.000000 0.000000 0.000000 33.244669 -3.006350 0.686436 61.452142 5.629460 -7.375213 6.878385 37.163807 5.768769 0.000000 0.000000 0.000000 
0.054188 0.928474 0.108826 -1.761854 -8.964049 -5.576341 4.415681 -0.093797 -3.574376 -2.463403 0.438602 16.446667 -96.354970 -40.671572 83.695014 0.000000 0.000000 0.000000 -10.984864 0.429874 -6.181957 9.109077 -1.082486 31.824422 -6.747463 -18.553509 16.556551 0.000000 0.000000 0.000000 3.190575 -0.406796 6.691928 -7.305424 2.354883 -22.053463 2.623864 15.772170 31.254596 5.458172 0.981891 -33.853291 0.000000 0.000000 0.000000 -26.013034 -5.762202 -1.660890 -55.042248 2.652453 -9.561178 -4.485235 -30.301222 2.257192 0.000000 0.000000 0.000000 32.317943 -2.110980 1.073937 62.570754 3.947708 -8.059004 7.236479 40.297493 6.493387 0.000000 0.000000 0.000000 
0.070947 0.935672 0.103129 -2.003673 -8.912011 -5.023408 3.640093 -0.126914 -3.306607 -2.544729 0.410597 13.867782 -94.508414 -39.694839 82.981646 0.000000 0.000000 0.000000 -10.594008 0.513007 -10.226767 9.902765 -1.365508 34.098004 -11.791644 -26.012948 20.003664 0.000000 0.000000 0.000000 3.452918 -0.522635 8.298605 -7.723716 2.479536 -21.653450 2.821740 15.124024 30.953069 4.991673 1.231493 -35.327505 0.000000 0.000000 0.000000 -26.448146 -6.835846 -0.826669 -54.939904 1.706821 -9.132483 -4.570552 -32.136632 2.473410 0.000000 0.000000 0.000000 32.290589 -1.964521 0.893598 62.489968 3.078281 -8.420343 9.675660 42.859174 7.939125 0.000000 0.000000 0.000000 
0.084605 0.942823 0.097553 -2.114072 -8.561612 -4.454057 2.947267 -0.107416 -2.366475 -2.591069 0.357474 10.058985 -93.375566 -38.672624 82.892800 0.000000 0.000000 0.000000 -9.961520 0.615340 -12.840901 10.967355 -1.838677 33.499905 -14.715983 -30.058486 19.657640 0.000000 0.000000 0.000000 3.824707 -0.641331 9.718256 -8.348397 2.607044 -22.946981 2.802896 14.070345 31.781322 5.695321 0.691278 -34.903693 0.000000 0.000000 0.000000 -25.741187 -7.443488 0.048483 -55.727422 1.371550 -9.411702 -6.736700 -33.668566 3.374284 0.000000 0.000000 0.000000 32.675977 -2.137343 0.416200 62.846947 2.439087 -8.812633 11.768412 45.185837 9.348562 0.000000 0.000000 0.000000 
0.095883 0.947211 0.092361 -2.679440 -8.205620 -3.502514 3.485054 -0.048458 -1.576623 -3.616887 0.512931 6.042299 -92.497619 -37.530241 83.108454 0.000000 0.000000 0.000000 -7.828077 0.794209 -13.406887 12.192440 -2.312745 30.871746 -14.547243 -30.639842 14.041817 0.000000 0.000000 0.000000 4.875172 -0.747583 9.842848 -7.140157 2.305484 -22.013651 0.354512 14.136496 30.440140 8.042641 -0.684910 -32.789831 0.000000 0.000000 0.000000 -23.803394 -8.684199 0.899167 -57.874574 2.027433 -10.158745 -9.549650 -34.945177 4.368104 0.000000 0.000000 0.000000 34.762706 -2.760062 -0.051450 62.433100 2.108513 -8.950797 13.173975 47.169444 10.476501 0.000000 0.000000 0.000000 
0.105669 0.947862 0.087605 -2.147986 -7.460494 -2.731246 2.897274 -0.092964 -1.820001 -4.641069 0.652237 3.936766 -91.651533 -36.280721 83.502782 0.000000 0.000000 0.000000 -6.753019 0.921695 -14.346042 12.249774 -2.429388 30.751308 -13.005142 -28.677187 10.802807 0.000000 0.000000 0.000000 4.833151 -0.749552 9.696938 -7.280566 2.422015 -19.998767 -0.284160 11.262188 28.771015 7.422090 -0.810217 -32.333984 0.000000 0.000000 0.000000 -24.299985 -8.972543 1.826615 -58.772724 0.360499 -9.536260 -9.759329 -36.066250 4.812282 0.000000 0.000000 0.000000 34.071152 -0.522397 0.424683 63.608174 2.091151 -8.605301 13.390124 50.433600 11.035118 0.000000 0.000000 0.000000 
0.114873 0.947486 0.082126 -1.745055 -6.515559 -2.555150 1.931334 -0.178523 -2.546295 -4.697397 0.645192 3.833358 -91.383556 -35.452799 84.092857 0.000000 0.000000 0.000000 -6.745328 0.881917 -14.033816 12.247706 -2.589350 31.577023 -14.113713 -30.159686 12.746927 0.000000 0.000000 0.000000 4.533845 -0.859529 11.507353 -6.756405 2.266034 -20.760216 -0.467106 9.936818 29.507059 7.919998 -1.246668 -32.113805 0.000000 0.000000 0.000000 -24.415723 -11.116050 3.384932 -59.668071 -1.543454 -8.832019 -12.063461 -36.935196 5.821308 0.000000 0.000000 0.000000 33.667513 -1.549512 -0.652907 64.133645 3.377293 -7.900008 18.128808 51.977878 13.838181 0.000000 0.000000 0.000000 
0.123582 0.946579 0.075640 -1.595440 -7.007808 -2.167714 1.702764 -0.206092 -2.815019 -5.533355 0.765941 2.697821 -90.288024 -35.095506 83.433970 0.000000 0.000000 0.000000 -6.624320 0.903836 -13.902401 12.486148 -2.605471 31.826166 -15.677919 -32.512700 13.065850 0.000000 0.000000 0.000000 4.308003 -0.870681 12.036316 -5.418650 1.871074 -20.575042 -0.022877 8.240564 29.938770 5.692787 -0.445662 -31.785799 0.000000 0.000000 0.000000 -24.067405 -11.939415 4.630535 -62.696376 -4.688633 -7.770260 -14.881210 -38.391090 7.394321 0.000000 0.000000 0.000000 30.913324 1.103834 0.426548 67.428489 5.266919 -6.755208 19.356699 54.037468 14.869686 0.000000 0.000000 0.000000 
0.131556 0.945196 0.067594 -0.501924 -8.374887 -1.441434 0.156346 -0.414545 -4.611173 -5.727217 0.834500 3.219381 -88.486913 -35.377157 81.589243 0.000000 0.000000 0.000000 -7.546781 0.882201 -13.938708 10.061444 -1.500506 31.007290 -15.001454 -31.973617 10.200132 0.000000 0.000000 0.000000 5.173684 -0.931749 11.841924 -5.709497 1.925887 -20.536468 0.044556 8.097215 31.211447 5.868016 -0.915339 -30.188455 0.000000 0.000000 0.000000 -21.963836 -13.849233 6.137238 -65.639597 -8.444622 -6.156050 -17.249828 -41.118214 9.209822 0.000000 0.000000 0.000000 28.790103 4.556657 2.376816 70.638718 10.420462 -3.629092 17.383512 57.138589 14.842988 0.000000 0.000000 0.000000 
0.139302 0.942958 0.057277 0.983228 -9.221725 -0.294503 -1.489081 -0.717563 -6.927950 -6.333759 0.954611 3.280542 -86.819789 -35.239565 80.240064 0.000000 0.000000 0.000000 -8.754321 0.846361 -13.952541 5.813243 -0.064699 26.062168 -13.816729 -29.942911 11.017525 0.000000 0.000000 0.000000 5.680554 -1.105954 13.623305 -5.393260 1.799317 -21.052180 -0.744935 8.785731 30.861820 8.693348 -2.922828 -27.120512 0.000000 0.000000 0.000000 -19.767704 -16.993726 7.732579 -67.942130 -12.248719 -3.979536 -19.685693 -43.576705 10.928960 0.000000 0.000000 0.000000 28.549293 7.411219 4.258163 70.689228 15.788778 -0.134992 21.202904 60.742395 18.394187 0.000000 0.000000 0.000000 
